<?xml version="1.0" standalone="no"?>
<!DOCTYPE svg PUBLIC "-//W3C//DTD SVG 20010904//EN"
 "http://www.w3.org/TR/2001/REC-SVG-20010904/DTD/svg10.dtd">
<svg version="1.0" xmlns="http://www.w3.org/2000/svg"
 width="260.000000pt" height="260.000000pt" viewBox="0 0 260.000000 260.000000"
 preserveAspectRatio="xMidYMid meet">
<metadata>
Created by potrace 1.11, written by Peter Selinger 2001-2013
</metadata>
<g transform="translate(0.000000,260.000000) scale(0.100000,-0.100000)"
fill="#000000" stroke="none">
<path d="M830 2456 c-30 -13 -73 -33 -95 -46 -22 -12 -58 -32 -80 -43 -22 -12
-42 -25 -45 -28 -3 -3 -25 -20 -49 -38 -89 -64 -227 -208 -287 -301 -16 -25
-35 -54 -42 -65 -11 -17 -65 -130 -91 -190 -73 -167 -97 -486 -53 -705 23
-117 100 -304 163 -398 16 -24 29 -46 29 -49 0 -3 10 -17 23 -32 12 -15 33
-42 46 -59 13 -18 30 -32 37 -32 7 0 20 25 28 54 9 30 21 58 26 61 6 3 10 13
10 21 0 8 9 34 20 56 11 23 20 50 20 59 0 10 4 21 10 24 5 3 10 15 10 26 0 10
4 19 9 19 5 0 11 12 14 27 5 29 44 129 77 199 11 23 20 48 20 56 0 8 7 23 15
34 27 35 19 54 -22 54 -99 0 -126 15 -104 58 6 9 21 42 35 72 13 30 45 99 70
153 25 54 46 100 46 102 0 1 21 47 46 101 25 55 55 119 66 144 11 25 33 72 49
105 16 33 29 64 29 68 0 4 -33 7 -72 7 -100 0 -105 5 -82 69 10 28 22 51 26
51 4 0 8 7 8 15 0 8 4 23 9 33 5 9 19 40 31 67 12 28 26 58 32 68 14 28 88
197 88 202 0 8 -14 5 -70 -19z"/>
<path d="M2166 2083 l-67 -68 48 -8 c26 -4 72 -10 101 -13 28 -4 52 -12 52
-18 0 -10 -46 -55 -200 -194 -25 -22 -56 -50 -70 -62 -14 -12 -50 -45 -80 -73
-30 -29 -100 -93 -155 -142 -55 -50 -103 -94 -107 -100 -8 -10 64 -33 135 -42
28 -4 37 -10 37 -24 0 -10 -3 -19 -8 -19 -4 0 -18 -10 -32 -23 -14 -12 -72
-58 -129 -102 -57 -44 -120 -93 -141 -110 -21 -16 -64 -50 -95 -75 -31 -25
-74 -58 -95 -75 -21 -16 -50 -39 -64 -49 -15 -11 -37 -28 -49 -38 -12 -11 -32
-28 -45 -39 -12 -10 -26 -19 -31 -19 -5 0 -11 -3 -13 -7 -3 -8 -83 -74 -195
-161 -37 -29 -108 -84 -158 -123 -97 -76 -94 -73 -178 -138 -31 -24 -57 -51
-57 -60 0 -15 89 -81 109 -81 5 0 11 -3 13 -8 4 -9 182 -92 197 -92 6 0 25 -6
43 -14 86 -37 190 -51 383 -51 193 0 297 14 383 51 18 8 37 14 43 14 10 0 122
50 164 73 11 6 37 20 58 31 21 11 46 27 55 37 10 9 28 21 39 27 53 29 201 177
276 277 74 98 138 221 168 320 6 22 15 49 19 60 5 11 13 47 20 80 6 33 16 76
21 96 12 47 12 307 0 362 -5 23 -15 69 -21 102 -7 33 -16 69 -20 80 -5 11 -19
49 -31 85 -12 35 -31 80 -41 100 -11 19 -30 53 -41 75 -33 62 -155 225 -168
225 -3 0 -36 -30 -73 -67z"/>
</g>
</svg>
