<?xml version="1.0" standalone="no"?>
<!DOCTYPE svg PUBLIC "-//W3C//DTD SVG 20010904//EN"
 "http://www.w3.org/TR/2001/REC-SVG-20010904/DTD/svg10.dtd">
<svg version="1.0" xmlns="http://www.w3.org/2000/svg"
 width="512.000000pt" height="512.000000pt" viewBox="0 0 512.000000 512.000000"
 preserveAspectRatio="xMidYMid meet">
<metadata>
Created by potrace 1.11, written by Peter Selinger 2001-2013
</metadata>
<g transform="translate(0.000000,512.000000) scale(0.100000,-0.100000)"
fill="#000000" stroke="none">
<path d="M2651 3500 c-25 -4 -39 -13 -51 -35 -30 -55 -120 -265 -120 -280 0
-10 18 -16 61 -21 37 -4 63 -12 66 -20 3 -8 -50 -135 -118 -282 -67 -147 -131
-289 -141 -316 -22 -58 -16 -66 50 -66 23 0 42 -5 42 -10 0 -10 -158 -419
-207 -534 -13 -32 -23 -60 -21 -62 3 -3 116 81 204 152 22 18 109 86 194 153
183 143 260 209 260 221 0 4 -23 13 -50 20 -28 7 -52 16 -55 20 -5 9 60 71
313 300 100 90 179 167 174 171 -4 4 -34 10 -67 14 -33 3 -63 10 -67 13 -4 4
63 78 149 165 150 150 156 158 137 172 -47 38 -64 46 -82 41 -10 -4 -82 -79
-160 -169 -77 -89 -152 -175 -167 -192 -68 -78 -73 -95 -28 -95 49 0 37 -15
-281 -337 -116 -117 -216 -213 -223 -213 -14 0 -9 17 31 103 202 433 197 417
129 417 -21 0 -33 5 -33 13 0 13 146 336 213 472 41 83 74 172 66 179 -8 8
-177 12 -218 6z"/>
<path d="M2379 3446 c-113 -39 -260 -139 -368 -249 -366 -374 -394 -944 -67
-1370 50 -65 39 -80 166 238 101 253 116 293 109 299 -2 2 -26 7 -53 10 -27 4
-53 9 -57 12 -8 5 3 34 61 159 142 308 210 460 210 471 0 12 -29 21 -95 26
-23 2 -29 7 -27 22 2 11 39 100 83 199 44 99 79 183 77 187 -2 5 -19 3 -39 -4z"/>
<path d="M3441 3116 l-53 -54 41 -6 c23 -3 59 -9 81 -12 22 -3 40 -9 40 -13 0
-9 -95 -100 -235 -226 -258 -233 -284 -264 -220 -265 36 0 95 -21 95 -33 0 -7
-28 -33 -63 -58 -34 -26 -132 -102 -218 -170 -86 -68 -236 -187 -334 -264
-383 -301 -430 -341 -430 -360 0 -38 215 -143 375 -184 64 -16 114 -21 216
-21 273 0 467 67 671 232 125 101 217 220 284 364 65 140 80 209 86 384 8 230
-12 332 -103 515 -52 106 -138 225 -163 225 -9 0 -41 -24 -70 -54z"/>
</g>
</svg>
